<?xml version="1.0" encoding="UTF-8" standalone="no"?><!DOCTYPE svg PUBLIC "-//W3C//DTD SVG 1.1//EN" "http://www.w3.org/Graphics/SVG/1.1/DTD/svg11.dtd"><svg width="100%" height="100%" viewBox="0 0 75 75" version="1.1" xmlns="http://www.w3.org/2000/svg" xmlns:xlink="http://www.w3.org/1999/xlink" xml:space="preserve" xmlns:serif="http://www.serif.com/" style="fill-rule:evenodd;clip-rule:evenodd;stroke-linecap:round;stroke-linejoin:round;stroke-miterlimit:1.5;"><path d="M33.776,28.786c0,-0.808 1.669,-1.464 3.724,-1.464c2.055,0 3.724,0.656 3.724,1.464c0.645,-0.7 2.613,-0.745 4.393,-0.1c1.78,0.644 2.702,1.735 2.058,2.435c1.116,-0.404 2.856,0.174 3.884,1.29c1.028,1.116 0.956,2.35 -0.16,2.754c1.288,0 2.335,1.046 2.335,2.335c0,1.289 -1.047,2.335 -2.335,2.335c1.116,0.404 1.188,1.638 0.16,2.754c-1.028,1.116 -2.768,1.694 -3.884,1.29c0.644,0.7 -0.278,1.791 -2.058,2.435c-1.78,0.645 -3.748,0.6 -4.393,-0.1c0,0.808 -1.669,1.464 -3.724,1.464c-2.055,0 -3.724,-0.656 -3.724,-1.464c-0.645,0.7 -2.613,0.745 -4.393,0.1c-1.78,-0.644 -2.702,-1.735 -2.058,-2.435c-1.116,0.404 -2.856,-0.174 -3.884,-1.29c-1.028,-1.116 -0.956,-2.35 0.16,-2.754c-1.288,0 -2.335,-1.046 -2.335,-2.335c0,-1.289 1.047,-2.335 2.335,-2.335c-1.116,-0.404 -1.188,-1.638 -0.16,-2.754c1.028,-1.116 2.768,-1.694 3.884,-1.29c-0.644,-0.7 0.278,-1.791 2.058,-2.435c1.78,-0.645 3.748,-0.6 4.393,0.1Z" style="fill:none;stroke:#5abae6;stroke-width:0.5px;"/><path d="M20.93,54.07l7.893,-7.893" style="fill:none;stroke:#5abae6;stroke-width:0.5px;"/><path d="M0,75l11.785,-11.785" style="fill:none;stroke:#5abae6;stroke-width:0.5px;"/><path d="M66.659,8.341l8.341,-8.341" style="fill:none;stroke:#5abae6;stroke-width:0.5px;"/><path d="M0,57.473l11.656,0" style="fill:none;stroke:#5abae6;stroke-width:0.5px;"/><path d="M61.645,57.473l13.355,0" style="fill:none;stroke:#5abae6;stroke-width:0.5px;"/><path d="M46.159,28.841l11.952,-11.952" style="fill:none;stroke:#5abae6;stroke-width:0.5px;"/><path d="M46.159,46.159l11.314,11.314" style="fill:none;stroke:#5abae6;stroke-width:0.5px;"/><path d="M17.671,17.671l11.17,11.17" style="fill:none;stroke:#5abae6;stroke-width:0.5px;"/><path d="M17.671,11.302l11.152,-11.152" style="fill:none;stroke:#5abae6;stroke-width:0.5px;"/><path d="M28.823,75l8.677,-8.677" style="fill:none;stroke:#5abae6;stroke-width:0.5px;"/><path d="M37.5,66.323l0,-18.645" style="fill:none;stroke:#5abae6;stroke-width:0.5px;"/><path id="Phone" d="M6.076,31.468c0.077,0 0.155,0.025 0.206,0.051c0.207,0.078 1.446,1.187 1.678,2.607c0,0 -0.129,0.593 -0.723,1.419c0,0 0.129,0.594 1.549,2.013c1.445,1.419 2.038,1.548 2.038,1.548c0.826,-0.593 1.446,-0.722 1.446,-0.722c1.445,0.232 2.554,1.471 2.632,1.677c0.284,0.645 -0.826,1.549 -0.826,1.549c-0.258,0.103 -0.542,0.154 -0.852,0.154c-2.296,0 -5.342,-2.967 -5.496,-3.122c-0.078,-0.078 -3.975,-4 -2.994,-6.297c0,0 0.748,-0.877 1.342,-0.877m1.652,7.174m0,0m-1.652,-7.691c-0.8,0 -1.6,0.878 -1.729,1.058l-0.052,0.052l-0.026,0.078c-1.109,2.554 2.633,6.4 3.097,6.864c0.362,0.361 3.407,3.278 5.858,3.278c0.388,0 0.723,-0.078 1.033,-0.207l0.077,-0.026l0.052,-0.051c0.232,-0.181 1.393,-1.213 0.98,-2.142c-0.154,-0.362 -1.419,-1.704 -3.019,-1.962l-0.103,-0.025l-0.103,0.025c-0.078,0.026 -0.62,0.129 -1.394,0.646c-0.258,-0.129 -0.774,-0.491 -1.626,-1.317c-0.826,-0.825 -1.187,-1.342 -1.316,-1.6c0.49,-0.774 0.619,-1.316 0.645,-1.367l0.026,-0.104l-0.026,-0.103c-0.258,-1.6 -1.626,-2.839 -1.987,-3.019c-0.103,-0.052 -0.232,-0.078 -0.387,-0.078Z" style="fill:#5abae6;fill-rule:nonzero;"/><path id="Message" d="M54.009,58.869l3.413,1.46l1.48,3.433l3.985,-8.859l-8.878,3.966Zm7.636,-2.999l-4.084,4.084l-2.565,-1.105l6.649,-2.979Zm-3.848,4.34l4.065,-4.064l-2.98,6.61l-1.085,-2.546Z" style="fill:#5abae6;fill-rule:nonzero;"/><path id="Globe-Earth" serif:id="Globe Earth" d="M56.893,12.21c0.076,-1.091 0.474,-2.115 1.158,-2.975c0.441,0.192 0.911,0.353 1.402,0.481c-0.226,0.785 -0.354,1.623 -0.383,2.494l-2.177,0Zm5.004,3.553l0,2.159c-0.619,-0.208 -1.195,-0.92 -1.607,-1.992c0.502,-0.093 1.041,-0.148 1.607,-0.167Zm-1.342,1.936c-0.764,-0.258 -1.461,-0.685 -2.044,-1.253c0.352,-0.139 0.735,-0.262 1.142,-0.366c0.243,0.649 0.55,1.199 0.902,1.619Zm-0.835,-4.737l2.177,0l0,2.146c-0.623,0.019 -1.232,0.088 -1.815,0.203c-0.209,-0.727 -0.333,-1.534 -0.362,-2.349Zm2.177,-2.898l0,2.146l-2.177,0c0.029,-0.816 0.153,-1.622 0.362,-2.348c0.586,0.115 1.195,0.183 1.815,0.202Zm-3.386,-1.338c0.583,-0.568 1.28,-0.995 2.044,-1.252c-0.352,0.419 -0.658,0.969 -0.902,1.618c-0.407,-0.104 -0.79,-0.227 -1.142,-0.366Zm1.779,0.516c0.412,-1.073 0.988,-1.785 1.607,-1.991l0,2.158c-0.567,-0.019 -1.106,-0.075 -1.607,-0.167Zm-0.837,6.214c-0.49,0.128 -0.961,0.289 -1.402,0.481c-0.684,-0.859 -1.082,-1.884 -1.158,-2.975l2.177,0c0.029,0.87 0.157,1.708 0.383,2.494Zm8.2,-2.496c-0.076,1.093 -0.474,2.118 -1.158,2.977c-0.442,-0.192 -0.913,-0.353 -1.402,-0.48c0.225,-0.786 0.354,-1.624 0.383,-2.497l2.177,0Zm-5.004,-3.551l0,-2.158c0.619,0.206 1.195,0.919 1.607,1.991c-0.501,0.092 -1.04,0.148 -1.607,0.167Zm2.244,-0.317c-0.243,-0.649 -0.551,-1.199 -0.902,-1.618c0.763,0.257 1.461,0.684 2.043,1.252c-0.352,0.139 -0.734,0.262 -1.141,0.366Zm-0.067,3.118l-2.177,0l0,-2.146c0.622,-0.019 1.231,-0.088 1.814,-0.202c0.209,0.725 0.334,1.532 0.363,2.348Zm0.649,0c-0.028,-0.87 -0.157,-1.708 -0.383,-2.494c0.491,-0.128 0.961,-0.289 1.403,-0.481c0.684,0.86 1.082,1.884 1.157,2.975l-2.177,0Zm-2.826,2.898l0,-2.148l2.177,0c-0.029,0.818 -0.154,1.625 -0.363,2.35c-0.583,-0.115 -1.192,-0.183 -1.814,-0.202Zm3.386,1.338c-0.583,0.568 -1.28,0.995 -2.044,1.253c0.351,-0.42 0.659,-0.97 0.902,-1.619c0.408,0.104 0.79,0.227 1.142,0.366Zm-1.779,-0.516c-0.412,1.072 -0.988,1.784 -1.607,1.992l0,-2.159c0.564,0.019 1.103,0.074 1.607,0.167Zm-1.983,-9.393c-3.335,0 -6.049,2.714 -6.049,6.049c0,3.335 2.714,6.049 6.049,6.049c3.335,0 6.049,-2.714 6.049,-6.049c0,-3.335 -2.714,-6.049 -6.049,-6.049Z" style="fill:#5abae6;"/><path id="Wifi" d="M37.496,34.731c1.735,0 3.325,0.607 4.579,1.613c0.128,0.104 0.313,0.093 0.423,-0.031l0.478,-0.531c0.119,-0.131 0.107,-0.339 -0.03,-0.451c-1.489,-1.218 -3.382,-2.052 -5.45,-2.052c-2.065,0 -3.955,0.831 -5.441,2.045c-0.138,0.112 -0.15,0.32 -0.031,0.452l0.477,0.531c0.11,0.124 0.294,0.134 0.423,0.031c1.253,-1.003 2.84,-1.607 4.572,-1.607Zm0,2.865c0.999,0 1.92,0.331 2.662,0.886c0.131,0.098 0.311,0.087 0.421,-0.034l0.53,-0.59c0.12,-0.133 0.107,-0.344 -0.034,-0.454c-0.99,-0.769 -2.23,-1.259 -3.579,-1.259c-1.346,0 -2.585,0.489 -3.574,1.255c-0.141,0.11 -0.154,0.321 -0.034,0.454l0.529,0.59c0.109,0.122 0.29,0.133 0.42,0.035c0.742,-0.554 1.662,-0.883 2.659,-0.883Zm1.714,2.373c0.127,-0.143 0.1,-0.366 -0.059,-0.472c-0.475,-0.32 -1.044,-0.527 -1.655,-0.527c-0.611,0 -1.178,0.207 -1.653,0.525c-0.159,0.106 -0.186,0.33 -0.059,0.472l1.482,1.651c0.123,0.137 0.336,0.137 0.46,0l1.484,-1.649Z" style="fill:#5abae6;"/><path id="Home" d="M16.588,9.846l0,-0.101c0,-0.473 0.378,-0.856 0.85,-0.856c0.47,0 0.851,0.379 0.851,0.856l0,1.616l1.385,1.234c0.486,0.433 0.351,0.783 -0.301,0.783l-1.084,0l0,6.702c0,0.327 -0.258,0.593 -0.594,0.593l-10.15,0c-0.328,0 -0.594,-0.264 -0.594,-0.593l0,-6.702l-1.09,0c-0.651,0 -0.786,-0.35 -0.3,-0.783l6.618,-5.897c0.242,-0.215 0.635,-0.215 0.876,0l3.533,3.148Zm-2.267,4.935l0,4.125l2.267,0l0,-4.125l-2.267,0Z" style="fill:#5abae6;"/><path id="Radio-Wave" serif:id="Radio Wave" d="M38.635,11.328c-0.09,0 -0.178,-0.045 -0.229,-0.126c-0.078,-0.125 -0.039,-0.289 0.087,-0.367c0.376,-0.232 0.619,-0.723 0.619,-1.251c0,-0.529 -0.243,-1.02 -0.619,-1.252c-0.126,-0.078 -0.165,-0.242 -0.087,-0.367c0.079,-0.124 0.244,-0.164 0.37,-0.086c0.538,0.332 0.873,0.985 0.873,1.705c0,0.719 -0.335,1.372 -0.873,1.704c-0.044,0.027 -0.093,0.04 -0.141,0.04Zm0.754,1.101c-0.094,0 -0.186,-0.047 -0.239,-0.131c-0.081,-0.131 -0.041,-0.302 0.09,-0.383c0.718,-0.443 1.164,-1.336 1.164,-2.331c0,-0.996 -0.446,-1.889 -1.164,-2.331c-0.131,-0.082 -0.171,-0.253 -0.09,-0.384c0.082,-0.13 0.254,-0.169 0.386,-0.089c0.881,0.543 1.428,1.618 1.428,2.804c0,1.185 -0.547,2.26 -1.428,2.803c-0.046,0.028 -0.097,0.042 -0.147,0.042Zm0.946,1.176c-0.093,0 -0.185,-0.047 -0.238,-0.131c-0.082,-0.131 -0.041,-0.302 0.09,-0.383c1.084,-0.669 1.757,-2.013 1.757,-3.507c0,-1.495 -0.673,-2.839 -1.757,-3.508c-0.131,-0.081 -0.172,-0.252 -0.09,-0.383c0.082,-0.13 0.254,-0.17 0.386,-0.09c1.247,0.77 2.022,2.295 2.022,3.981c0,1.685 -0.775,3.21 -2.022,3.979c-0.046,0.028 -0.097,0.042 -0.148,0.042Zm-2.149,-4.021c0,0.366 -0.3,0.664 -0.669,0.664c-0.369,0 -0.669,-0.298 -0.669,-0.664c0,-0.367 0.3,-0.665 0.669,-0.665c0.369,0 0.669,0.298 0.669,0.665Zm-1.821,1.744c-0.048,0 -0.097,-0.013 -0.141,-0.04c-0.538,-0.332 -0.873,-0.985 -0.873,-1.704c0,-0.72 0.335,-1.373 0.873,-1.705c0.126,-0.078 0.292,-0.038 0.37,0.086c0.078,0.125 0.039,0.289 -0.087,0.367c-0.376,0.232 -0.619,0.723 -0.619,1.252c0,0.528 0.243,1.019 0.619,1.251c0.126,0.078 0.165,0.242 0.087,0.367c-0.051,0.081 -0.139,0.126 -0.229,0.126Zm-0.754,1.101c-0.05,0 -0.101,-0.014 -0.147,-0.042c-0.881,-0.543 -1.428,-1.618 -1.428,-2.803c0,-1.186 0.547,-2.261 1.428,-2.804c0.131,-0.081 0.304,-0.041 0.386,0.089c0.081,0.131 0.041,0.302 -0.09,0.384c-0.718,0.442 -1.164,1.335 -1.164,2.331c0,0.995 0.446,1.888 1.164,2.331c0.131,0.081 0.171,0.252 0.09,0.383c-0.053,0.084 -0.145,0.131 -0.239,0.131Zm-0.946,1.176c-0.051,0 -0.102,-0.014 -0.148,-0.042c-1.247,-0.769 -2.022,-2.294 -2.022,-3.979c0,-1.686 0.775,-3.211 2.022,-3.981c0.132,-0.08 0.304,-0.04 0.386,0.09c0.082,0.131 0.041,0.302 -0.09,0.383c-1.084,0.669 -1.757,2.013 -1.757,3.508c0,1.494 0.673,2.838 1.757,3.507c0.131,0.081 0.172,0.252 0.09,0.383c-0.053,0.084 -0.145,0.131 -0.238,0.131Z" style="fill:#5abae6;"/><path d="M37.5,27.322l0.017,-17.738" style="fill:none;stroke:#5abae6;stroke-width:0.5px;"/><path id="Today-apps" serif:id="Today apps" d="M20.529,63.538l0,-10.49c0,-0.353 -0.251,-0.64 -0.56,-0.64l-6.985,0c-0.309,0 -0.561,0.287 -0.561,0.64l0,10.49c0,0.353 0.252,0.64 0.561,0.64l6.985,0c0.309,0 0.56,-0.287 0.56,-0.64Zm-0.56,-11.971c0.715,0 1.297,0.664 1.297,1.481l0,10.49c0,0.817 -0.582,1.481 -1.297,1.481l-6.985,0c-0.716,0 -1.298,-0.664 -1.298,-1.481l0,-10.49c0,-0.817 0.582,-1.481 1.298,-1.481l6.985,0Zm-6.809,11.648l6.632,0l0,-7.567l-6.632,0l0,7.567Zm0.368,-8.985l2.948,0c0.204,0 0.369,-0.188 0.369,-0.42c0,-0.233 -0.165,-0.421 -0.369,-0.421l-2.948,0c-0.203,0 -0.368,0.188 -0.368,0.421c0,0.232 0.165,0.42 0.368,0.42Z" style="fill:#5abae6;"/><g id="Lock-Orientation" serif:id="Lock Orientation"><path d="M70.091,34.464c0,0.354 -0.286,0.64 -0.64,0.64l-2.562,0c-0.353,0 -0.64,-0.286 -0.64,-0.64l0,-1.623c0,-0.932 0.862,-1.691 1.921,-1.691c1.059,0 1.921,0.761 1.921,1.691l0,1.623Zm-1.921,-4.443c-1.765,0 -3.202,1.262 -3.202,2.82l0,1.62c0,0.355 -0.287,0.641 -0.64,0.641c-0.354,0 -0.641,0.286 -0.641,0.64l0,4.365c0,0.354 0.287,0.64 0.641,0.64l7.685,0c0.353,0 0.641,-0.286 0.641,-0.64l0,-4.365c0,-0.354 -0.288,-0.64 -0.641,-0.64c-0.354,0 -0.64,-0.286 -0.64,-0.641l0,-1.62c0,-1.552 -1.434,-2.82 -3.203,-2.82Z" style="fill:#5abae6;"/></g><path d="M53.734,37.5l9.953,0" style="fill:none;stroke:#5abae6;stroke-width:0.5px;"/><path d="M68.17,12.962l6.83,0" style="fill:none;stroke:#5abae6;stroke-width:0.5px;"/><path d="M0,12.962l6.978,0" style="fill:none;stroke:#5abae6;stroke-width:0.5px;"/><path d="M37.5,66.323l8.677,8.677" style="fill:none;stroke:#5abae6;stroke-width:0.5px;"/><path d="M46.177,0l10.716,10.717" style="fill:none;stroke:#5abae6;stroke-width:0.5px;"/><path d="M12.5,20.5l-3.419,16.847" style="fill:none;stroke:#5abae6;stroke-width:0.5px;"/></svg>